<?xml version="1.0" encoding="UTF-8"?>
<svg width="100px" height="30px" viewBox="0 0 100 30" version="1.1" xmlns="http://www.w3.org/2000/svg" xmlns:xlink="http://www.w3.org/1999/xlink">
    <!-- Generator: Sketch 42 (36781) - http://www.bohemiancoding.com/sketch -->
    <title>logo</title>
    <desc>Created with Sketch.</desc>
    <defs></defs>
    <g id="Page-1" stroke="none" stroke-width="1" fill="none" fill-rule="evenodd">
        <g id="Desktop-HD" transform="translate(-868.000000, -624.000000)">
            <g id="logo" transform="translate(868.000000, 624.000000)">
                <rect id="bar" fill="#FFFFFF" x="0" y="0" width="100" height="30"></rect>
                <polygon id="l" fill="#352B37" points="18 18.7822266 18 12.1123047 19.71875 12.1123047 19.71875 17.2832031 22.3994141 17.2832031 22.3994141 18.7822266"></polygon>
                <path d="M27.9365234,15.4521484 C27.9365234,14.9540991 28.0268546,14.4894227 28.2075195,14.0581055 C28.3881845,13.6267882 28.6363917,13.2613947 28.9521484,12.9619141 C29.2679052,12.6624334 29.6463194,12.4272469 30.0874023,12.2563477 C30.5284853,12.0854484 31.0012996,12 31.5058594,12 C32.0104192,12 32.4824197,12.0854484 32.921875,12.2563477 C33.3613303,12.4272469 33.7381169,12.6624334 34.0522461,12.9619141 C34.3663753,13.2613947 34.6137686,13.6267882 34.7944336,14.0581055 C34.9750986,14.4894227 35.0654297,14.9540991 35.0654297,15.4521484 C35.0654297,15.9501978 34.9750986,16.4148741 34.7944336,16.8461914 C34.6137686,17.2775087 34.3663753,17.6429021 34.0522461,17.9423828 C33.7381169,18.2418635 33.3613303,18.4770499 32.921875,18.6479492 C32.4824197,18.8188485 32.0104192,18.9042969 31.5058594,18.9042969 C31.0012996,18.9042969 30.5284853,18.8188485 30.0874023,18.6479492 C29.6463194,18.4770499 29.2679052,18.2418635 28.9521484,17.9423828 C28.6363917,17.6429021 28.3881845,17.2775087 28.2075195,16.8461914 C28.0268546,16.4148741 27.9365234,15.9501978 27.9365234,15.4521484 Z M29.6894531,15.4521484 C29.6894531,16.0022814 29.8570947,16.4612612 30.1923828,16.8291016 C30.5276709,17.1969419 30.9654921,17.3808594 31.5058594,17.3808594 C32.0462267,17.3808594 32.483234,17.1969419 32.8168945,16.8291016 C33.1505551,16.4612612 33.3173828,16.0022814 33.3173828,15.4521484 C33.3173828,14.8987603 33.1505551,14.4389667 32.8168945,14.0727539 C32.483234,13.7065411 32.0462267,13.5234375 31.5058594,13.5234375 C30.9654921,13.5234375 30.5276709,13.7065411 30.1923828,14.0727539 C29.8570947,14.4389667 29.6894531,14.8987603 29.6894531,15.4521484 Z" id="o" fill="#352B37"></path>
                <polygon id="n" fill="#352B37" points="40.9345703 18.7822266 40.9345703 12.1123047 42.7021484 12.1123047 45.4023438 15.7841797 45.4023438 12.1123047 47.1357422 12.1123047 47.1357422 18.7822266 45.4755859 18.7822266 42.6533203 14.9199219 42.6533203 18.7822266"></polygon>
                <polygon id="e" fill="#352B37" points="53.3320312 18.7822266 53.3320312 12.1123047 58.2197266 12.1123047 58.2197266 13.6113281 55.0507812 13.6113281 55.0507812 14.6513672 58.1513672 14.6513672 58.1513672 16.1503906 55.0507812 16.1503906 55.0507812 17.2832031 58.2197266 17.2832031 58.2197266 18.7822266"></polygon>
                <path d="M64.2207031,16.0820312 L64.2207031,12.1123047 L65.96875,12.1123047 L65.96875,16.0234375 C65.96875,16.4303406 66.0908191,16.7582995 66.3349609,17.0073242 C66.5791028,17.2563489 66.9274066,17.3808594 67.3798828,17.3808594 C67.8258486,17.3808594 68.1708972,17.2563489 68.4150391,17.0073242 C68.6591809,16.7582995 68.78125,16.4303406 68.78125,16.0234375 L68.78125,12.1123047 L70.5195312,12.1123047 L70.5195312,16.0722656 C70.5195312,16.4921896 70.4552415,16.873859 70.3266602,17.2172852 C70.1980788,17.5607114 70.007651,17.8585599 69.7553711,18.1108398 C69.5030912,18.3631198 69.1751322,18.5584303 68.7714844,18.6967773 C68.3678365,18.8351244 67.903974,18.9042969 67.3798828,18.9042969 C66.8557917,18.9042969 66.3911153,18.8343106 65.9858398,18.6943359 C65.5805644,18.5543613 65.250164,18.3582369 64.9946289,18.105957 C64.7390938,17.8536771 64.5462246,17.5574561 64.4160156,17.2172852 C64.2858066,16.8771142 64.2207031,16.4987 64.2207031,16.0820312 Z" id="u" fill="#352B37"></path>
                <polygon id="x" fill="#352B37" points="76.0224609 18.7822266 78.3417969 15.3642578 76.1689453 12.1123047 78.2001953 12.1123047 79.4990234 14.2021484 80.7880859 12.1123047 82.8291016 12.1123047 80.6611328 15.3544922 82.9804688 18.7822266 80.9492188 18.7822266 79.4990234 16.5410156 78.0488281 18.7822266"></polygon>
            </g>
        </g>
    </g>
</svg>